<?xml version="1.0" encoding="UTF-8"?>
<svg id="Layer_2" data-name="Layer 2" xmlns="http://www.w3.org/2000/svg" viewBox="0 0 256.8 157.85">
  <defs>
    <style>
      .cls-1 {
        fill: #a7a9ac;
      }

      .cls-2 {
        fill: none;
        stroke: #231f20;
        stroke-miterlimit: 10;
        stroke-width: 1.55px;
      }

      .cls-3 {
        fill: #ed1c24;
      }
    </style>
  </defs>
  <g id="Layer_1-2" data-name="Layer 1">
    <g>
      <path class="cls-1" d="M127.84,123.84c0,4.26-3.01,8.81-9.03,13.65-10.06,8.13-22.94,12.19-38.63,12.19-16.88,0-29.94-5.08-39.19-15.23-9.25-10.15-13.88-24.48-13.88-42.98s4.68-32.3,14.04-43.51c10.11-12.04,23.58-18.06,40.41-18.06,14.33,0,26.06,3.74,35.2,11.21,3.43,2.77,5.14,5.34,5.14,7.71,0,1.76-.68,3.32-2.04,4.68s-2.92,2.04-4.68,2.04c-1.14,0-2.77-.77-4.88-2.31-9.49-6.81-19.16-10.22-29-10.22-12.26,0-22.04,4.33-29.33,12.99-7.3,8.66-10.94,20.43-10.94,35.33,0,29.97,13.05,44.96,39.16,44.96,14.9,0,25.53-3.6,31.9-10.81,1.45-1.89,2.9-3.8,4.35-5.73,1.41-1.67,3.01-2.5,4.81-2.5s3.46,.63,4.71,1.88c1.25,1.25,1.88,2.82,1.88,4.71Z"/>
      <path class="cls-1" d="M256.8,144.07c0,3.3-1.76,6.48-5.28,9.56v-.13c-3.34,2.9-7.94,4.35-13.79,4.35-7.57,0-13.2-1.32-16.9-3.96-1.1-.79-2.46-2.13-4.08-4.02-2.63-3.03-4.15-4.75-4.54-5.14-13.92-14.72-23.49-23.36-28.71-25.91-2.28-.83-4.53-1.7-6.75-2.6-2.22-.9-3.33-2.56-3.33-4.98,0-4.13,3.49-6.46,10.48-6.99,7.51-.61,13.62-3.64,18.33-9.06,4.7-5.43,7.05-12.1,7.05-20.01,0-17.89-11.38-26.83-34.15-26.83h-1.05c-5.67,23.2-8.5,48.16-8.5,74.88,0,4.61,.13,9.47,.4,14.57s-36.73-15.47-36.73-15.03c0,6.11,34.86,1.93,30.65,1.93-3.43,0-6.77,18.3-7.83,14.13-.84-3.34,0,0,0-10.33,0-31.73,2.75-58.01,8.24-78.84-16.22,2.73-25.18,4.09-26.89,4.09-6.28,0-9.43-2.26-9.43-6.79,0-2.81,1.17-4.75,3.49-5.8,1.36-.57,3.1-.9,5.21-.99,1.8-.09,3.63-.15,5.47-.2,1.36-.13,7.03-1.01,17.01-2.64,7.43-1.23,13.82-1.85,19.18-1.85,32.65,0,48.98,12.96,48.98,38.89,0,8.22-2.26,15.81-6.79,22.77-4.53,6.97-10.86,12.43-18.98,16.38,6.37,4.83,12.63,10.48,18.79,16.94,7.29,7.65,11.03,11.54,11.21,11.67,2.24,1.98,5.93,2.97,11.07,2.97,2.46,0,4.02-.35,4.68-1.05,1.41-1.49,2.81-2.99,4.22-4.48,1.45-1.32,2.83-1.98,4.15-1.98,1.41,0,2.62,.62,3.63,1.85,1.01,1.23,1.52,2.77,1.52,4.61Z"/>
      <g>
        <circle class="cls-3" cx="27.11" cy="26.46" r="21.69"/>
        <circle class="cls-2" cx="27.11" cy="27.11" r="26.34"/>
      </g>
    </g>
  </g>
</svg>